<svg xmlns="http://www.w3.org/2000/svg" width="1200" height="675" viewBox="0 0 1200 675" role="img" aria-labelledby="t d">
  <title id="t">REST API Explorer</title>
  <desc id="d">Retrofit • Coroutines • States • Pagination</desc>
  <defs>
    <linearGradient id="bg" x1="0" y1="0" x2="1" y2="1">
      <stop offset="0" stop-color="#06111f"/>
      <stop offset="0.58" stop-color="#0b1d32"/>
      <stop offset="1" stop-color="#0a1425"/>
    </linearGradient>
    <linearGradient id="accent" x1="0" y1="0" x2="1" y2="1">
      <stop offset="0" stop-color="#51b7ff"/>
      <stop offset="1" stop-color="#6de7d4"/>
    </linearGradient>
    <filter id="blur"><feGaussianBlur stdDeviation="45"/></filter>
    <filter id="shadow" x="-30%" y="-30%" width="160%" height="160%">
      <feDropShadow dx="0" dy="18" stdDeviation="18" flood-color="#000" flood-opacity=".32"/>
    </filter>
    <pattern id="grid" width="46" height="46" patternUnits="userSpaceOnUse">
      <path d="M46 0H0V46" fill="none" stroke="#8dc9ff" stroke-opacity=".07"/>
    </pattern>
  </defs>
  <rect width="1200" height="675" fill="url(#bg)"/>
  <rect width="1200" height="675" fill="url(#grid)"/>
  <circle cx="105" cy="100" r="180" fill="#51b7ff" fill-opacity=".16" filter="url(#blur)"/>
  <circle cx="1080" cy="575" r="220" fill="#6de7d4" fill-opacity=".14" filter="url(#blur)"/>
  <rect x="74" y="74" width="1052" height="527" rx="36" fill="#0c2036" fill-opacity=".82" stroke="#8dc9ff" stroke-opacity=".14" filter="url(#shadow)"/>
  <rect x="94" y="94" width="1012" height="487" rx="27" fill="#071624" stroke="#8dc9ff" stroke-opacity=".08"/>
  <g opacity=".9">
        <g transform="translate(642 134)">
          <rect width="395" height="270" rx="28" fill="#0d2944" stroke="#51b7ff" stroke-opacity=".26"/>
          <rect x="0" y="0" width="395" height="47" rx="28" fill="#102944"/>
          <circle cx="28" cy="24" r="6" fill="#ff6b6b"/>
          <circle cx="50" cy="24" r="6" fill="#ffd166"/>
          <circle cx="72" cy="24" r="6" fill="#6de7d4"/>
          <g transform="translate(36 82)" font-family="monospace" font-size="21" font-weight="700">
            <text x="0" y="0" fill="#8d7bff">GET</text>
            <text x="62" y="0" fill="#9eb0c7">/api/projects</text>
            <text x="0" y="44" fill="#6de7d4">{</text>
            <text x="25" y="44" fill="#51b7ff">"status"</text>
            <text x="119" y="44" fill="#9eb0c7">:</text>
            <text x="138" y="44" fill="#ffd166">"success"</text>
            <text x="0" y="82" fill="#6de7d4">}</text>
          </g>
          <g transform="translate(278 84)">
            <circle cx="38" cy="38" r="38" fill="#51b7ff" fill-opacity=".12" stroke="#51b7ff" stroke-opacity=".4"/>
            <path d="M21 39h34M45 27l12 12-12 12" fill="none" stroke="url(#accent)" stroke-width="7" stroke-linecap="round" stroke-linejoin="round"/>
          </g>
          <rect x="36" y="218" width="213" height="13" rx="6" fill="#9eb0c7" fill-opacity=".15"/>
          <rect x="36" y="242" width="140" height="13" rx="6" fill="#9eb0c7" fill-opacity=".09"/>
        </g></g>
  <g>
    <text x="138" y="462" fill="#f5f8fc" font-family="Arial, Helvetica, sans-serif" font-size="54" font-weight="800" letter-spacing="-2">REST API Explorer</text>
    <text x="140" y="510" fill="#9eb0c7" font-family="Arial, Helvetica, sans-serif" font-size="24">Retrofit • Coroutines • States • Pagination</text>
    <rect x="140" y="542" width="180" height="7" rx="3.5" fill="url(#accent)"/>
  </g>
  <g transform="translate(963 116)">
    <rect width="112" height="42" rx="21" fill="#ffffff" fill-opacity=".06" stroke="#ffffff" stroke-opacity=".11"/>
    <circle cx="25" cy="21" r="6" fill="#51b7ff"/>
    <text x="43" y="27" fill="#dce9f7" font-family="Arial, Helvetica, sans-serif" font-size="15" font-weight="700">CASE STUDY</text>
  </g>
</svg>