<svg xmlns="http://www.w3.org/2000/svg" width="1200" height="675" viewBox="0 0 1200 675" role="img" aria-labelledby="t d">
  <title id="t">Arrow Line Master</title>
  <desc id="d">Kotlin • Jetpack Compose • Puzzle Systems</desc>
  <defs>
    <linearGradient id="bg" x1="0" y1="0" x2="1" y2="1">
      <stop offset="0" stop-color="#06111f"/>
      <stop offset="0.58" stop-color="#0b1d32"/>
      <stop offset="1" stop-color="#0a1425"/>
    </linearGradient>
    <linearGradient id="accent" x1="0" y1="0" x2="1" y2="1">
      <stop offset="0" stop-color="#51b7ff"/>
      <stop offset="1" stop-color="#8d7bff"/>
    </linearGradient>
    <filter id="blur"><feGaussianBlur stdDeviation="45"/></filter>
    <filter id="shadow" x="-30%" y="-30%" width="160%" height="160%">
      <feDropShadow dx="0" dy="18" stdDeviation="18" flood-color="#000" flood-opacity=".32"/>
    </filter>
    <pattern id="grid" width="46" height="46" patternUnits="userSpaceOnUse">
      <path d="M46 0H0V46" fill="none" stroke="#8dc9ff" stroke-opacity=".07"/>
    </pattern>
  </defs>
  <rect width="1200" height="675" fill="url(#bg)"/>
  <rect width="1200" height="675" fill="url(#grid)"/>
  <circle cx="105" cy="100" r="180" fill="#51b7ff" fill-opacity=".16" filter="url(#blur)"/>
  <circle cx="1080" cy="575" r="220" fill="#8d7bff" fill-opacity=".14" filter="url(#blur)"/>
  <rect x="74" y="74" width="1052" height="527" rx="36" fill="#0c2036" fill-opacity=".82" stroke="#8dc9ff" stroke-opacity=".14" filter="url(#shadow)"/>
  <rect x="94" y="94" width="1012" height="487" rx="27" fill="#071624" stroke="#8dc9ff" stroke-opacity=".08"/>
  <g opacity=".9">
        <g transform="translate(615 158)">
          <rect width="402" height="246" rx="28" fill="#0d2944" stroke="#51b7ff" stroke-opacity=".28"/>
          <g transform="translate(42 40)" stroke="url(#accent)" stroke-width="10" stroke-linecap="round" stroke-linejoin="round" fill="none">
            <path d="M0 30h95l-25-25m25 25L70 55"/>
            <path d="M132 0v90l-25-24m25 24 25-24"/>
            <path d="M210 67h100l-25-25m25 25-25 25"/>
            <path d="M35 142h92l-24-24m24 24-24 24"/>
            <path d="M170 120v82l-23-23m23 23 23-23"/>
            <path d="M244 164h68l-22-22m22 22-22 22"/>
          </g>
          <circle cx="52" cy="205" r="10" fill="#6de7d4"/>
          <circle cx="78" cy="205" r="10" fill="#51b7ff" fill-opacity=".35"/>
          <circle cx="104" cy="205" r="10" fill="#51b7ff" fill-opacity=".2"/>
        </g></g>
  <g>
    <text x="138" y="462" fill="#f5f8fc" font-family="Arial, Helvetica, sans-serif" font-size="54" font-weight="800" letter-spacing="-2">Arrow Line Master</text>
    <text x="140" y="510" fill="#9eb0c7" font-family="Arial, Helvetica, sans-serif" font-size="24">Kotlin • Jetpack Compose • Puzzle Systems</text>
    <rect x="140" y="542" width="180" height="7" rx="3.5" fill="url(#accent)"/>
  </g>
  <g transform="translate(963 116)">
    <rect width="112" height="42" rx="21" fill="#ffffff" fill-opacity=".06" stroke="#ffffff" stroke-opacity=".11"/>
    <circle cx="25" cy="21" r="6" fill="#51b7ff"/>
    <text x="43" y="27" fill="#dce9f7" font-family="Arial, Helvetica, sans-serif" font-size="15" font-weight="700">CASE STUDY</text>
  </g>
</svg>