<svg xmlns="http://www.w3.org/2000/svg" width="1200" height="675" viewBox="0 0 1200 675" role="img" aria-labelledby="t d">
  <title id="t">Brand Campaign Collection</title>
  <desc id="d">Creative Direction • Copy • Social Media</desc>
  <defs>
    <linearGradient id="bg" x1="0" y1="0" x2="1" y2="1">
      <stop offset="0" stop-color="#06111f"/>
      <stop offset="0.58" stop-color="#0b1d32"/>
      <stop offset="1" stop-color="#0a1425"/>
    </linearGradient>
    <linearGradient id="accent" x1="0" y1="0" x2="1" y2="1">
      <stop offset="0" stop-color="#ff7a9b"/>
      <stop offset="1" stop-color="#8d7bff"/>
    </linearGradient>
    <filter id="blur"><feGaussianBlur stdDeviation="45"/></filter>
    <filter id="shadow" x="-30%" y="-30%" width="160%" height="160%">
      <feDropShadow dx="0" dy="18" stdDeviation="18" flood-color="#000" flood-opacity=".32"/>
    </filter>
    <pattern id="grid" width="46" height="46" patternUnits="userSpaceOnUse">
      <path d="M46 0H0V46" fill="none" stroke="#8dc9ff" stroke-opacity=".07"/>
    </pattern>
  </defs>
  <rect width="1200" height="675" fill="url(#bg)"/>
  <rect width="1200" height="675" fill="url(#grid)"/>
  <circle cx="105" cy="100" r="180" fill="#ff7a9b" fill-opacity=".16" filter="url(#blur)"/>
  <circle cx="1080" cy="575" r="220" fill="#8d7bff" fill-opacity=".14" filter="url(#blur)"/>
  <rect x="74" y="74" width="1052" height="527" rx="36" fill="#0c2036" fill-opacity=".82" stroke="#8dc9ff" stroke-opacity=".14" filter="url(#shadow)"/>
  <rect x="94" y="94" width="1012" height="487" rx="27" fill="#071624" stroke="#8dc9ff" stroke-opacity=".08"/>
  <g opacity=".9">
        <g transform="translate(645 126)">
          <g transform="rotate(-7 100 135)">
            <rect x="0" y="20" width="190" height="260" rx="24" fill="#132742" stroke="#ff7a9b" stroke-opacity=".32"/>
            <circle cx="95" cy="103" r="52" fill="url(#accent)" fill-opacity=".76"/>
            <rect x="38" y="177" width="114" height="15" rx="7" fill="#fff" fill-opacity=".72"/>
            <rect x="56" y="207" width="78" height="10" rx="5" fill="#fff" fill-opacity=".25"/>
          </g>
          <g transform="translate(130 0) rotate(8 120 150)">
            <rect x="0" y="0" width="220" height="292" rx="25" fill="#0d2944" stroke="#8d7bff" stroke-opacity=".38"/>
            <rect x="29" y="30" width="162" height="118" rx="18" fill="url(#accent)" fill-opacity=".18"/>
            <path d="M54 120l33-37 26 20 37-46" fill="none" stroke="url(#accent)" stroke-width="9" stroke-linecap="round" stroke-linejoin="round"/>
            <rect x="32" y="177" width="154" height="17" rx="8" fill="#fff" fill-opacity=".68"/>
            <rect x="32" y="211" width="108" height="11" rx="5" fill="#fff" fill-opacity=".22"/>
            <rect x="32" y="246" width="90" height="26" rx="9" fill="#ff7a9b" fill-opacity=".8"/>
          </g>
        </g></g>
  <g>
    <text x="138" y="462" fill="#f5f8fc" font-family="Arial, Helvetica, sans-serif" font-size="54" font-weight="800" letter-spacing="-2">Brand Campaign Collection</text>
    <text x="140" y="510" fill="#9eb0c7" font-family="Arial, Helvetica, sans-serif" font-size="24">Creative Direction • Copy • Social Media</text>
    <rect x="140" y="542" width="180" height="7" rx="3.5" fill="url(#accent)"/>
  </g>
  <g transform="translate(963 116)">
    <rect width="112" height="42" rx="21" fill="#ffffff" fill-opacity=".06" stroke="#ffffff" stroke-opacity=".11"/>
    <circle cx="25" cy="21" r="6" fill="#ff7a9b"/>
    <text x="43" y="27" fill="#dce9f7" font-family="Arial, Helvetica, sans-serif" font-size="15" font-weight="700">CASE STUDY</text>
  </g>
</svg>