<svg xmlns="http://www.w3.org/2000/svg" width="1200" height="675" viewBox="0 0 1200 675" role="img" aria-labelledby="t d">
  <title id="t">Rafhad Technology Solutions</title>
  <desc id="d">Web • Digital Marketing • Creative Services</desc>
  <defs>
    <linearGradient id="bg" x1="0" y1="0" x2="1" y2="1">
      <stop offset="0" stop-color="#06111f"/>
      <stop offset="0.58" stop-color="#0b1d32"/>
      <stop offset="1" stop-color="#0a1425"/>
    </linearGradient>
    <linearGradient id="accent" x1="0" y1="0" x2="1" y2="1">
      <stop offset="0" stop-color="#8d7bff"/>
      <stop offset="1" stop-color="#51b7ff"/>
    </linearGradient>
    <filter id="blur"><feGaussianBlur stdDeviation="45"/></filter>
    <filter id="shadow" x="-30%" y="-30%" width="160%" height="160%">
      <feDropShadow dx="0" dy="18" stdDeviation="18" flood-color="#000" flood-opacity=".32"/>
    </filter>
    <pattern id="grid" width="46" height="46" patternUnits="userSpaceOnUse">
      <path d="M46 0H0V46" fill="none" stroke="#8dc9ff" stroke-opacity=".07"/>
    </pattern>
  </defs>
  <rect width="1200" height="675" fill="url(#bg)"/>
  <rect width="1200" height="675" fill="url(#grid)"/>
  <circle cx="105" cy="100" r="180" fill="#8d7bff" fill-opacity=".16" filter="url(#blur)"/>
  <circle cx="1080" cy="575" r="220" fill="#51b7ff" fill-opacity=".14" filter="url(#blur)"/>
  <rect x="74" y="74" width="1052" height="527" rx="36" fill="#0c2036" fill-opacity=".82" stroke="#8dc9ff" stroke-opacity=".14" filter="url(#shadow)"/>
  <rect x="94" y="94" width="1012" height="487" rx="27" fill="#071624" stroke="#8dc9ff" stroke-opacity=".08"/>
  <g opacity=".9">
        <g transform="translate(650 140)">
          <rect x="0" y="0" width="405" height="250" rx="28" fill="#0d2944" stroke="#8d7bff" stroke-opacity=".3"/>
          <rect x="25" y="25" width="355" height="200" rx="18" fill="#071624"/>
          <rect x="25" y="25" width="355" height="38" rx="18" fill="#102944"/>
          <circle cx="49" cy="44" r="5" fill="#8d7bff"/>
          <circle cx="68" cy="44" r="5" fill="#51b7ff"/>
          <circle cx="87" cy="44" r="5" fill="#6de7d4"/>
          <g transform="translate(51 88)">
            <rect width="138" height="104" rx="15" fill="url(#accent)" fill-opacity=".18" stroke="#8d7bff" stroke-opacity=".3"/>
            <path d="M28 70l27-25 20 16 34-42" fill="none" stroke="url(#accent)" stroke-width="8" stroke-linecap="round" stroke-linejoin="round"/>
            <circle cx="109" cy="19" r="8" fill="#51b7ff"/>
          </g>
          <g transform="translate(218 86)">
            <rect width="134" height="26" rx="8" fill="#9eb0c7" fill-opacity=".18"/>
            <rect y="42" width="102" height="15" rx="7" fill="#9eb0c7" fill-opacity=".12"/>
            <rect y="69" width="122" height="15" rx="7" fill="#9eb0c7" fill-opacity=".12"/>
            <rect y="106" width="92" height="34" rx="11" fill="url(#accent)" fill-opacity=".82"/>
          </g>
        </g></g>
  <g>
    <text x="138" y="462" fill="#f5f8fc" font-family="Arial, Helvetica, sans-serif" font-size="54" font-weight="800" letter-spacing="-2">Rafhad Technology Solutions</text>
    <text x="140" y="510" fill="#9eb0c7" font-family="Arial, Helvetica, sans-serif" font-size="24">Web • Digital Marketing • Creative Services</text>
    <rect x="140" y="542" width="180" height="7" rx="3.5" fill="url(#accent)"/>
  </g>
  <g transform="translate(963 116)">
    <rect width="112" height="42" rx="21" fill="#ffffff" fill-opacity=".06" stroke="#ffffff" stroke-opacity=".11"/>
    <circle cx="25" cy="21" r="6" fill="#8d7bff"/>
    <text x="43" y="27" fill="#dce9f7" font-family="Arial, Helvetica, sans-serif" font-size="15" font-weight="700">CASE STUDY</text>
  </g>
</svg>