<svg xmlns="http://www.w3.org/2000/svg" width="1200" height="675" viewBox="0 0 1200 675" role="img" aria-labelledby="t d">
  <title id="t">ServoMart Enterprise App</title>
  <desc id="d">Authentication • Ordering • Business Integration</desc>
  <defs>
    <linearGradient id="bg" x1="0" y1="0" x2="1" y2="1">
      <stop offset="0" stop-color="#06111f"/>
      <stop offset="0.58" stop-color="#0b1d32"/>
      <stop offset="1" stop-color="#0a1425"/>
    </linearGradient>
    <linearGradient id="accent" x1="0" y1="0" x2="1" y2="1">
      <stop offset="0" stop-color="#ff9c4a"/>
      <stop offset="1" stop-color="#51b7ff"/>
    </linearGradient>
    <filter id="blur"><feGaussianBlur stdDeviation="45"/></filter>
    <filter id="shadow" x="-30%" y="-30%" width="160%" height="160%">
      <feDropShadow dx="0" dy="18" stdDeviation="18" flood-color="#000" flood-opacity=".32"/>
    </filter>
    <pattern id="grid" width="46" height="46" patternUnits="userSpaceOnUse">
      <path d="M46 0H0V46" fill="none" stroke="#8dc9ff" stroke-opacity=".07"/>
    </pattern>
  </defs>
  <rect width="1200" height="675" fill="url(#bg)"/>
  <rect width="1200" height="675" fill="url(#grid)"/>
  <circle cx="105" cy="100" r="180" fill="#ff9c4a" fill-opacity=".16" filter="url(#blur)"/>
  <circle cx="1080" cy="575" r="220" fill="#51b7ff" fill-opacity=".14" filter="url(#blur)"/>
  <rect x="74" y="74" width="1052" height="527" rx="36" fill="#0c2036" fill-opacity=".82" stroke="#8dc9ff" stroke-opacity=".14" filter="url(#shadow)"/>
  <rect x="94" y="94" width="1012" height="487" rx="27" fill="#071624" stroke="#8dc9ff" stroke-opacity=".08"/>
  <g opacity=".9">
        <g transform="translate(650 130)">
          <rect x="86" y="0" width="190" height="308" rx="34" fill="#0c1c2d" stroke="#ff9c4a" stroke-opacity=".45" stroke-width="3"/>
          <rect x="100" y="22" width="162" height="258" rx="23" fill="#102944"/>
          <rect x="120" y="52" width="122" height="58" rx="14" fill="url(#accent)" fill-opacity=".9"/>
          <path d="M145 78h72M145 92h45" stroke="#fff" stroke-opacity=".88" stroke-width="8" stroke-linecap="round"/>
          <rect x="120" y="132" width="52" height="52" rx="13" fill="#ff9c4a" fill-opacity=".18" stroke="#ff9c4a" stroke-opacity=".45"/>
          <rect x="190" y="132" width="52" height="52" rx="13" fill="#51b7ff" fill-opacity=".16" stroke="#51b7ff" stroke-opacity=".4"/>
          <rect x="120" y="202" width="122" height="15" rx="7" fill="#9eb0c7" fill-opacity=".22"/>
          <rect x="120" y="230" width="92" height="15" rx="7" fill="#9eb0c7" fill-opacity=".15"/>
          <circle cx="181" cy="294" r="6" fill="#9eb0c7"/>
          <g transform="translate(0 76)">
            <rect width="112" height="92" rx="18" fill="#0f2c49" stroke="#51b7ff" stroke-opacity=".28"/>
            <path d="M31 55h50M38 40h36" stroke="#51b7ff" stroke-width="8" stroke-linecap="round"/>
          </g>
          <g transform="translate(250 168)">
            <rect width="114" height="92" rx="18" fill="#2b1d18" stroke="#ff9c4a" stroke-opacity=".35"/>
            <path d="M34 37h47l-5 36H40zM44 37l6-14h16l6 14" fill="none" stroke="#ff9c4a" stroke-width="7" stroke-linecap="round" stroke-linejoin="round"/>
          </g>
        </g></g>
  <g>
    <text x="138" y="462" fill="#f5f8fc" font-family="Arial, Helvetica, sans-serif" font-size="54" font-weight="800" letter-spacing="-2">ServoMart Enterprise App</text>
    <text x="140" y="510" fill="#9eb0c7" font-family="Arial, Helvetica, sans-serif" font-size="24">Authentication • Ordering • Business Integration</text>
    <rect x="140" y="542" width="180" height="7" rx="3.5" fill="url(#accent)"/>
  </g>
  <g transform="translate(963 116)">
    <rect width="112" height="42" rx="21" fill="#ffffff" fill-opacity=".06" stroke="#ffffff" stroke-opacity=".11"/>
    <circle cx="25" cy="21" r="6" fill="#ff9c4a"/>
    <text x="43" y="27" fill="#dce9f7" font-family="Arial, Helvetica, sans-serif" font-size="15" font-weight="700">CASE STUDY</text>
  </g>
</svg>